<svg xmlns="http://www.w3.org/2000/svg" xmlns:xlink="http://www.w3.org/1999/xlink" width="18" height="16" version="1.1" viewBox="0 0 18 16"><title>price_switch_icon_green_left</title><g id="页面-1" fill="none" fill-rule="evenodd" stroke="none" stroke-width="1"><g id="兑换/未登录" transform="translate(-125.000000, -715.000000)"><g id="编组-2" transform="translate(20.000000, 698.000000)"><g id="price_switch_icon_green_left"><g transform="translate(105.000000, 17.000000)"><g id="切换" fill="#07D79B"><path id="形状" d="M7,4 L12,4 L12,6 L15,3 L12,0 L12,2 L7,2 C3.13400675,2 0,5.13400675 0,9 L2,9 C2,6.23857625 4.23857625,4 7,4 Z"/></g><path id="路径" fill="#000" d="M16,7 C16,8.32608245 15.4732158,9.59785201 14.5355339,10.5355339 C13.597852,11.4732158 12.3260824,12 11,12 L6,12 L6,10 L3,13 L6,16 L6,14 L11,14 C14.8659932,14 18,10.8659932 18,7 L16,7 Z" opacity=".3"/></g></g></g></g></g></svg>