<svg xmlns="http://www.w3.org/2000/svg" xmlns:xlink="http://www.w3.org/1999/xlink" width="36" height="36" version="1.1" viewBox="0 0 36 36"><title>switch_up</title><defs><filter id="filter-1" width="100%" height="100%" x="0%" y="0%" filterUnits="objectBoundingBox"><feGaussianBlur in="SourceGraphic" stdDeviation="0"/></filter></defs><g id="页面-1" fill="none" fill-rule="evenodd" stroke="none" stroke-width="1"><g id="交互文档/兑换" transform="translate(-1156.000000, -784.000000)"><g id="switch_up"><g transform="translate(1156.000000, 784.000000)"><circle id="椭圆形" cx="18" cy="18" r="18" fill="#07D79B" filter="url(#filter-1)"/><g id="编组-2" fill="#FFF" fill-rule="nonzero" transform="translate(7.000000, 9.000000)"><g id="右" opacity=".5" transform="translate(14.500000, 14.500000) rotate(-270.000000) translate(-14.500000, -14.500000) translate(10.000000, 7.000000)"><path id="路径" d="M8.96248151,7.33621615 C8.94461756,7.29919918 8.92071795,7.26439188 8.89005353,7.23367956 L1.77305255,0.110305893 C1.62611044,-0.0367686311 1.38788395,-0.0367686311 1.24094184,0.110305893 L0.110206585,1.2420398 C-0.0367152743,1.38911432 -0.0367152743,1.62755547 0.110206585,1.77463 L5.83043721,7.5 L0.110206585,13.2253599 C-0.0367355282,13.3724344 -0.0367355282,13.6109161 0.110206585,13.7579703 L1.24092159,14.8897042 C1.3878637,15.0367788 1.62609018,15.0367585 1.77303229,14.889684 L7.75925751,8.89808475 C7.75927776,8.89806448 7.75927776,8.89804421 7.75929802,8.89804421 L8.89001302,7.7663103 C8.89920829,7.75710674 8.9078162,7.74755856 8.91585701,7.73768601 C9.00957185,7.62272259 9.02484329,7.46539035 8.96248151,7.33621615 L8.96248151,7.33621615 Z"/></g><g id="右备份" transform="translate(7.500000, 4.500000) scale(1, -1) rotate(-270.000000) translate(-7.500000, -4.500000) translate(3.000000, -3.000000)"><path id="路径" d="M8.96248151,7.33621615 C8.94461756,7.29919918 8.92071795,7.26439188 8.89005353,7.23367956 L1.77305255,0.110305893 C1.62611044,-0.0367686311 1.38788395,-0.0367686311 1.24094184,0.110305893 L0.110206585,1.2420398 C-0.0367152743,1.38911432 -0.0367152743,1.62755547 0.110206585,1.77463 L5.83043721,7.5 L0.110206585,13.2253599 C-0.0367355282,13.3724344 -0.0367355282,13.6109161 0.110206585,13.7579703 L1.24092159,14.8897042 C1.3878637,15.0367788 1.62609018,15.0367585 1.77303229,14.889684 L7.75925751,8.89808475 C7.75927776,8.89806448 7.75927776,8.89804421 7.75929802,8.89804421 L8.89001302,7.7663103 C8.89920829,7.75710674 8.9078162,7.74755856 8.91585701,7.73768601 C9.00957185,7.62272259 9.02484329,7.46539035 8.96248151,7.33621615 L8.96248151,7.33621615 Z"/></g></g></g></g></g></g></svg>