<svg xmlns="http://www.w3.org/2000/svg" xmlns:xlink="http://www.w3.org/1999/xlink" width="200" height="200" class="icon" p-id="3653" t="1597286758151" version="1.1" viewBox="0 0 1024 1024"><defs><style type="text/css"/></defs><path fill="#f5a623" d="M511.44 22.95c-270.4 0-489.6 218.88-489.6 488.89 0 174.66 93.32 336.05 244.8 423.39 151.49 87.33 338.12 87.33 489.6 0 151.49-87.33 244.8-248.72 244.8-423.39 0.01-270-219.2-488.89-489.6-488.89z m0 760.5c-30.04 0-54.4-24.32-54.4-54.32 0-19.4 10.37-37.34 27.2-47.04 16.83-9.7 37.57-9.7 54.4 0s27.2 27.64 27.2 47.04c0 29.99-24.35 54.32-54.4 54.32z m54.4-217.29c0 32.59-21.76 54.32-54.4 54.32s-54.4-21.73-54.4-54.32v-271.6c0-32.59 21.76-54.32 54.4-54.32s54.4 21.73 54.4 54.32v271.6z" p-id="3654"/></svg>